<svg width="33" height="34" viewBox="0 0 33 34" fill="none" xmlns="http://www.w3.org/2000/svg">
<g clip-path="url(#clip0_1064_5825)">
<path d="M22.8111 10.4975L8.67613 25.0609C8.01613 25.7409 6.88863 25.585 6.48988 24.7209C5.77488 23.205 5.36238 21.4909 5.36238 19.6917C5.33488 11.8717 13.0349 5.18504 15.6474 3.13087C16.1561 2.73421 16.8436 2.73421 17.3386 3.13087C18.5349 4.06587 20.7761 6.00671 22.8799 8.55671C23.3474 9.12337 23.3199 9.97337 22.8111 10.4975Z" fill="#8BA6FB"/>
<path d="M27.6375 19.7058C27.6375 26.0242 22.6462 31.1667 16.5 31.1667C14.0387 31.1667 11.7425 30.345 9.8862 28.9283C9.21245 28.4183 9.15745 27.3983 9.7487 26.7892L23.595 12.5233C24.2412 11.8575 25.3275 11.9992 25.7675 12.8208C26.895 14.96 27.6512 17.2833 27.6375 19.7058Z" fill="#8BA6FB"/>
</g>
<defs>
<clipPath id="clip0_1064_5825">
<rect width="33" height="34" fill="white"/>
</clipPath>
</defs>
</svg>
