<svg width="30" height="26" viewBox="0 0 30 26" fill="none" xmlns="http://www.w3.org/2000/svg">
<g clip-path="url(#clip0_1107_6744)">
<rect width="30" height="26" fill="#0A0C2C"/>
<path d="M20.7376 8.02746L7.88757 19.1641C7.28757 19.6841 6.26257 19.565 5.90007 18.9041C5.25007 17.745 4.87507 16.4341 4.87507 15.0583C4.85007 9.07829 11.8501 3.96496 14.2251 2.39413C14.6876 2.09079 15.3126 2.09079 15.7626 2.39413C16.8501 3.10913 18.8876 4.59329 20.8001 6.54329C21.2251 6.97663 21.2001 7.62663 20.7376 8.02746Z" fill="#8BA6FB"/>
<path d="M25.125 15.0692C25.125 19.9009 20.5875 23.8334 15 23.8334C12.7625 23.8334 10.675 23.205 8.98746 22.1217C8.37496 21.7317 8.32496 20.9517 8.86246 20.4859L21.45 9.57671C22.0375 9.06754 23.025 9.17587 23.425 9.80421C24.45 11.44 25.1375 13.2167 25.125 15.0692Z" fill="#8BA6FB"/>
</g>
<defs>
<clipPath id="clip0_1107_6744">
<rect width="30" height="26" fill="white"/>
</clipPath>
</defs>
</svg>
